TITLE ""
FILE "Disc2Track01.mp3" MP3
  TRACK 01 AUDIO
    TITLE "Disc2Track01_01"
    INDEX 01 00:00:00
  TRACK 02 AUDIO
    TITLE "Disc2Track01_02"
    INDEX 01 00:01:18
  TRACK 03 AUDIO
    TITLE "Disc2Track01_03"
    INDEX 01 00:02:46
  TRACK 04 AUDIO
    TITLE "Disc2Track01_04"
    INDEX 01 00:04:00
  TRACK 05 AUDIO
    TITLE "Disc2Track01_05"
    INDEX 01 00:09:01
  TRACK 06 AUDIO
    TITLE "Disc2Track01_06"
    INDEX 01 00:09:37
  TRACK 07 AUDIO
    TITLE "Disc2Track01_07"
    INDEX 01 00:10:71
  TRACK 08 AUDIO
    TITLE "Disc2Track01_08"
    INDEX 01 00:11:65
  TRACK 09 AUDIO
    TITLE "Disc2Track01_09"
    INDEX 01 00:13:25
  TRACK 10 AUDIO
    TITLE "Disc2Track01_10"
    INDEX 01 00:13:68
  TRACK 11 AUDIO
    TITLE "Disc2Track01_11"
    INDEX 01 00:15:33
  TRACK 12 AUDIO
    TITLE "Disc2Track01_12"
    INDEX 01 00:16:39
  TRACK 13 AUDIO
    TITLE "Disc2Track01_13"
    INDEX 01 00:18:00
  TRACK 14 AUDIO
    TITLE "Disc2Track01_14"
    INDEX 01 00:22:73
  TRACK 15 AUDIO
    TITLE "Disc2Track01_15"
    INDEX 01 00:23:27
  TRACK 16 AUDIO
    TITLE "Disc2Track01_16"
    INDEX 01 00:24:48
  TRACK 17 AUDIO
    TITLE "Disc2Track01_17"
    INDEX 01 00:27:07
  TRACK 18 AUDIO
    TITLE "Disc2Track01_18"
    INDEX 01 00:28:28
  TRACK 19 AUDIO
    TITLE "Disc2Track01_19"
    INDEX 01 00:31:25
  TRACK 20 AUDIO
    TITLE "Disc2Track01_20"
    INDEX 01 00:31:58
  TRACK 21 AUDIO
    TITLE "Disc2Track01_21"
    INDEX 01 00:33:23
  TRACK 22 AUDIO
    TITLE "Disc2Track01_22"
    INDEX 01 00:34:43
  TRACK 23 AUDIO
    TITLE "Disc2Track01_23"
    INDEX 01 00:36:08
  TRACK 24 AUDIO
    TITLE "Disc2Track01_24"
    INDEX 01 00:36:43
  TRACK 25 AUDIO
    TITLE "Disc2Track01_25"
    INDEX 01 00:37:70
  TRACK 26 AUDIO
    TITLE "Disc2Track01_26"
    INDEX 01 00:40:12
  TRACK 27 AUDIO
    TITLE "Disc2Track01_27"
    INDEX 01 00:41:39
  TRACK 28 AUDIO
    TITLE "Disc2Track01_28"
    INDEX 01 00:45:70
  TRACK 29 AUDIO
    TITLE "Disc2Track01_29"
    INDEX 01 00:46:26
  TRACK 30 AUDIO
    TITLE "Disc2Track01_30"
    INDEX 01 00:47:49
  TRACK 31 AUDIO
    TITLE "Disc2Track01_31"
    INDEX 01 00:48:45
  TRACK 32 AUDIO
    TITLE "Disc2Track01_32"
    INDEX 01 00:49:70
  TRACK 33 AUDIO
    TITLE "Disc2Track01_33"
    INDEX 01 00:53:46
  TRACK 34 AUDIO
    TITLE "Disc2Track01_34"
    INDEX 01 00:54:04
  TRACK 35 AUDIO
    TITLE "Disc2Track01_35"
    INDEX 01 00:55:31
  TRACK 36 AUDIO
    TITLE "Disc2Track01_36"
    INDEX 01 00:57:69
  TRACK 37 AUDIO
    TITLE "Disc2Track01_37"
    INDEX 01 00:59:25
  TRACK 38 AUDIO
    TITLE "Disc2Track01_38"
    INDEX 01 00:59:60
  TRACK 39 AUDIO
    TITLE "Disc2Track01_39"
    INDEX 01 01:01:10
  TRACK 40 AUDIO
    TITLE "Disc2Track01_40"
    INDEX 01 01:05:23
  TRACK 41 AUDIO
    TITLE "Disc2Track01_41"
    INDEX 01 01:06:48
  TRACK 42 AUDIO
    TITLE "Disc2Track01_42"
    INDEX 01 01:11:24
  TRACK 43 AUDIO
    TITLE "Disc2Track01_43"
    INDEX 01 01:11:55
  TRACK 44 AUDIO
    TITLE "Disc2Track01_44"
    INDEX 01 01:13:09
  TRACK 45 AUDIO
    TITLE "Disc2Track01_45"
    INDEX 01 01:14:18
  TRACK 46 AUDIO
    TITLE "Disc2Track01_46"
    INDEX 01 01:15:51
